<svg width="74" height="78" viewBox="0 0 74 78" fill="none" xmlns="http://www.w3.org/2000/svg">
<path fill-rule="evenodd" clip-rule="evenodd" d="M37.1539 73.3078C57.1211 73.3078 73.3078 57.1211 73.3078 37.1539C73.3078 17.1866 57.1211 1 37.1539 1C17.1866 1 1 17.1866 1 37.1539C1 46.6565 4.66615 55.3029 10.6612 61.7558L9.16267 77.0004L24.756 71.1261C28.6229 72.5376 32.7985 73.3078 37.1539 73.3078ZM37.1458 64.8723C52.454 64.8723 64.8637 52.4626 64.8637 37.1543C64.8637 21.8461 52.454 9.43635 37.1458 9.43635C21.8375 9.43635 9.42776 21.8461 9.42776 37.1543C9.42776 52.4626 21.8375 64.8723 37.1458 64.8723ZM20.0999 46.7036C26.0118 54.4346 41.3829 65.258 55.5716 46.7036L54.2073 45.3393C49.4323 52.6155 36.1986 62.8023 21.4642 45.3393L20.0999 46.7036ZM51.4795 30.3324C51.4795 32.2161 49.9524 33.7432 48.0687 33.7432C46.185 33.7432 44.658 32.2161 44.658 30.3324C44.658 28.4487 46.185 26.9217 48.0687 26.9217C49.9524 26.9217 51.4795 28.4487 51.4795 30.3324ZM23.5636 32.1693C24.0884 31.4696 25.6627 30.0702 27.7619 30.0702V26.9215C25.1379 26.9215 21.4645 29.5454 21.4645 31.1197C21.4645 32.3792 22.8639 32.3442 23.5636 32.1693ZM33.006 32.1693C32.4812 31.4696 30.9068 30.0702 28.8077 30.0702V26.9215C31.4316 26.9215 35.1051 29.5454 35.1051 31.1197C35.1051 32.3792 33.7057 32.3442 33.006 32.1693Z" fill="#ED145B"/>
<path d="M10.6612 61.7558L11.1835 61.8071L11.2066 61.5718L11.0457 61.3986L10.6612 61.7558ZM9.16267 77.0004L8.6404 76.949L8.55783 77.789L9.34767 77.4915L9.16267 77.0004ZM24.756 71.1261L24.936 70.6331L24.7532 70.5664L24.571 70.635L24.756 71.1261ZM55.5716 46.7036L55.9885 47.0224L56.2676 46.6574L55.9427 46.3325L55.5716 46.7036ZM20.0999 46.7036L19.7288 46.3325L19.4039 46.6574L19.683 47.0224L20.0999 46.7036ZM54.2073 45.3393L54.5784 44.9682L54.1224 44.5122L53.7686 45.0514L54.2073 45.3393ZM21.4642 45.3393L21.8653 45.0009L21.497 44.5644L21.0931 44.9682L21.4642 45.3393ZM27.7619 30.0702V30.595H28.2866V30.0702H27.7619ZM23.5636 32.1693L23.6909 32.6784L23.8716 32.6332L23.9834 32.4842L23.5636 32.1693ZM27.7619 26.9215H28.2866V26.3967H27.7619V26.9215ZM28.8077 30.0702H28.2829V30.595H28.8077V30.0702ZM33.006 32.1693L32.5861 32.4842L32.6979 32.6332L32.8787 32.6784L33.006 32.1693ZM28.8077 26.9215V26.3967H28.2829V26.9215H28.8077ZM72.783 37.1539C72.783 56.8313 56.8313 72.783 37.1539 72.783V73.8326C57.411 73.8326 73.8326 57.411 73.8326 37.1539H72.783ZM37.1539 1.52478C56.8313 1.52478 72.783 17.4765 72.783 37.1539H73.8326C73.8326 16.8968 57.411 0.475218 37.1539 0.475218V1.52478ZM1.52478 37.1539C1.52478 17.4765 17.4765 1.52478 37.1539 1.52478V0.475218C16.8968 0.475218 0.475218 16.8968 0.475218 37.1539H1.52478ZM11.0457 61.3986C5.13724 55.039 1.52478 46.5189 1.52478 37.1539H0.475218C0.475218 46.7942 4.19507 55.5669 10.2767 62.113L11.0457 61.3986ZM9.68493 77.0517L11.1835 61.8071L10.1389 61.7044L8.6404 76.949L9.68493 77.0517ZM24.571 70.635L8.97766 76.5093L9.34767 77.4915L24.941 71.6172L24.571 70.635ZM37.1539 72.783C32.8607 72.783 28.7461 72.0239 24.936 70.6331L24.5761 71.619C28.4998 73.0513 32.7362 73.8326 37.1539 73.8326V72.783ZM64.339 37.1543C64.339 52.1727 52.1641 64.3475 37.1458 64.3475V65.3971C52.7438 65.3971 65.3885 52.7524 65.3885 37.1543H64.339ZM37.1458 9.96114C52.1641 9.96114 64.339 22.1359 64.339 37.1543H65.3885C65.3885 21.5563 52.7438 8.91157 37.1458 8.91157V9.96114ZM9.95255 37.1543C9.95255 22.1359 22.1274 9.96114 37.1458 9.96114V8.91157C21.5477 8.91157 8.90298 21.5563 8.90298 37.1543H9.95255ZM37.1458 64.3475C22.1274 64.3475 9.95255 52.1727 9.95255 37.1543H8.90298C8.90298 52.7524 21.5477 65.3971 37.1458 65.3971V64.3475ZM55.1548 46.3848C51.6499 50.968 48.098 53.7035 44.6724 55.1342C41.2508 56.5632 37.9241 56.7036 34.8412 56.0473C28.6512 54.7296 23.4284 50.1923 20.5167 46.3848L19.683 47.0224C22.6833 50.9458 28.102 55.6858 34.6227 57.0739C37.8952 57.7706 41.4411 57.6211 45.0769 56.1027C48.7088 54.5859 52.399 51.7163 55.9885 47.0224L55.1548 46.3848ZM53.8362 45.7104L55.2005 47.0747L55.9427 46.3325L54.5784 44.9682L53.8362 45.7104ZM21.0631 45.6777C28.5214 54.5172 35.699 56.4549 41.684 55.1289C47.6107 53.8157 52.2142 49.333 54.6461 45.6272L53.7686 45.0514C51.4254 48.6219 47.0245 52.8706 41.457 54.1042C35.9479 55.3248 29.1414 53.6244 21.8653 45.0009L21.0631 45.6777ZM20.471 47.0747L21.8353 45.7104L21.0931 44.9682L19.7288 46.3325L20.471 47.0747ZM48.0687 34.2679C50.2422 34.2679 52.0042 32.506 52.0042 30.3324H50.9547C50.9547 31.9263 49.6626 33.2184 48.0687 33.2184V34.2679ZM44.1332 30.3324C44.1332 32.506 45.8952 34.2679 48.0687 34.2679V33.2184C46.4748 33.2184 45.1827 31.9263 45.1827 30.3324H44.1332ZM48.0687 26.3969C45.8952 26.3969 44.1332 28.1589 44.1332 30.3324H45.1827C45.1827 28.7385 46.4748 27.4465 48.0687 27.4465V26.3969ZM52.0042 30.3324C52.0042 28.1589 50.2422 26.3969 48.0687 26.3969V27.4465C49.6626 27.4465 50.9547 28.7385 50.9547 30.3324H52.0042ZM27.7619 29.5454C25.4392 29.5454 23.7265 31.0775 23.1438 31.8544L23.9834 32.4842C24.4503 31.8617 25.8862 30.595 27.7619 30.595V29.5454ZM27.2371 26.9215V30.0702H28.2866V26.9215H27.2371ZM21.9892 31.1197C21.9892 30.911 22.1236 30.5709 22.4843 30.1334C22.8309 29.7131 23.3321 29.2694 23.9255 28.8633C25.1262 28.0418 26.5968 27.4463 27.7619 27.4463V26.3967C26.303 26.3967 24.6249 27.1131 23.3329 27.9971C22.68 28.4438 22.0987 28.9513 21.6745 29.4657C21.2645 29.963 20.9397 30.5413 20.9397 31.1197H21.9892ZM23.4363 31.6602C23.1344 31.7357 22.712 31.7695 22.3978 31.6784C22.2491 31.6353 22.1549 31.5731 22.0977 31.5044C22.0456 31.4416 21.9892 31.3319 21.9892 31.1197H20.9397C20.9397 31.5373 21.0582 31.8955 21.2904 32.175C21.5175 32.4484 21.8169 32.6027 22.1055 32.6864C22.6659 32.849 23.293 32.7779 23.6909 32.6784L23.4363 31.6602ZM28.8077 30.595C30.6833 30.595 32.1193 31.8617 32.5861 32.4842L33.4258 31.8544C32.8431 31.0775 31.1303 29.5454 28.8077 29.5454V30.595ZM28.2829 26.9215V30.0702H29.3325V26.9215H28.2829ZM35.6299 31.1197C35.6299 30.5413 35.305 29.963 34.895 29.4657C34.4708 28.9513 33.8896 28.4438 33.2367 27.9971C31.9446 27.1131 30.2665 26.3967 28.8077 26.3967V27.4463C29.9727 27.4463 31.4434 28.0418 32.644 28.8633C33.2375 29.2694 33.7386 29.7131 34.0852 30.1334C34.4459 30.5709 34.5803 30.911 34.5803 31.1197H35.6299ZM32.8787 32.6784C33.2765 32.7779 33.9037 32.849 34.4641 32.6864C34.7527 32.6027 35.0521 32.4484 35.2792 32.175C35.5113 31.8955 35.6299 31.5373 35.6299 31.1197H34.5803C34.5803 31.3319 34.5239 31.4416 34.4718 31.5044C34.4147 31.5731 34.3205 31.6353 34.1717 31.6784C33.8575 31.7695 33.4351 31.7357 33.1332 31.6602L32.8787 32.6784Z" fill="#ED145B"/>
</svg>
